<?xml version="1.0" encoding="UTF-8"?>
<!DOCTYPE svg PUBLIC "-//W3C//DTD SVG 1.1//EN" "http://www.w3.org/Graphics/SVG/1.1/DTD/svg11.dtd">
<!-- Creator: CorelDRAW 2018 (64 Bit Versão de avaliação) -->
<svg xmlns="http://www.w3.org/2000/svg" xml:space="preserve" width="3248px" height="2126px" version="1.1" style="shape-rendering:geometricPrecision; text-rendering:geometricPrecision; image-rendering:optimizeQuality; fill-rule:evenodd; clip-rule:evenodd"
viewBox="0 0 3248 2125.96"
 xmlns:xlink="http://www.w3.org/1999/xlink"
 data-name="Layer 1">
 <defs>
  <style type="text/css">
   <![CDATA[
    .str0 {stroke:#9724B9;stroke-width:3.13;stroke-miterlimit:22.9256;stroke-opacity:0.800000}
    .str1 {stroke:#9724B9;stroke-width:3.13;stroke-miterlimit:22.9256}
    .fil21 {fill:none}
    .fil18 {fill:none}
    .fil1 {fill:#FEFEFE}
    .fil6 {fill:#4C4C78}
    .fil5 {fill:#737A9D}
    .fil8 {fill:#9724B9}
    .fil11 {fill:#B96B6B}
    .fil10 {fill:#CBCDDA}
    .fil3 {fill:#FFB9B9}
    .fil12 {fill:black;fill-opacity:0.011765}
    .fil4 {fill:black;fill-opacity:0.050980}
    .fil15 {fill:white;fill-opacity:0.082353}
    .fil7 {fill:black;fill-opacity:0.101961}
    .fil0 {fill:#9724B9;fill-opacity:0.101961}
    .fil19 {fill:white;fill-opacity:0.101961}
    .fil16 {fill:black;fill-opacity:0.160784}
    .fil20 {fill:black;fill-opacity:0.200000}
    .fil9 {fill:white;fill-opacity:0.200000}
    .fil14 {fill:#9724B9;fill-opacity:0.639216}
    .fil2 {fill:#9724B9;fill-opacity:0.701961}
    .fil13 {fill:white;fill-opacity:0.701961}
    .fil17 {fill:#9724B9;fill-opacity:0.800000}
   ]]>
  </style>
   <mask id="id0">
  <linearGradient id="id1" gradientUnits="userSpaceOnUse" x1="195.62" y1="2189.43" x2="1357.89" y2="920.78">
   <stop offset="0" style="stop-opacity:1; stop-color:white"/>
   <stop offset="1" style="stop-opacity:0; stop-color:white"/>
  </linearGradient>
    <rect style="fill:url(#id1)" x="32.25" y="9.24" width="3025.98" height="2094.25"/>
   </mask>
 </defs>
 <g id="Camada_x0020_1">
  <metadata id="CorelCorpID_0Corel-Layer"/>
  <path class="fil0" d="M90.8 679.75c-24,73.15 46.56,138.94 102.06,191.93 75.99,72.65 135.96,160.7 175.94,258.12 24.13,58.93 40.91,122.33 36.41,185.92 -12.75,180.35 -181.44,300.51 -316.22,419.98 -19.09,17.13 -38.19,35 -49.31,58.03 -35.72,73.91 25,159.08 91.87,206.21 238.16,167.77 581.9,117.87 812.9,-59.75 119.63,-92 222.44,-217.1 367.4,-258 92.69,-26.02 191.06,-13.69 286.97,-5.66 83.68,6.74 168.35,10.5 252.28,10.5 59.68,0 120.86,-1.88 180.17,-5.26 50.56,-3.14 103.43,-8.05 145.78,-36.02 107.22,-70.74 89.12,-238.44 166.5,-341.33 55.62,-73.94 150.65,-102.44 233.37,-143.31 127.09,-63.31 233.44,-162.66 305.55,-285.7 66.4,-113.81 100.81,-243.19 134.37,-370.74 25.31,-95.84 50.72,-196.21 29.28,-293.02 -21.44,-96.82 -106.06,-187.22 -204.18,-178.72 -75.35,6.51 -135.28,66.45 -207.85,87.91 -173.78,51.52 -342.53,-127.48 -522.84,-110.2 -113.53,10.85 -205.09,97.53 -274.31,188.78 -69.22,91.25 -127.81,193.98 -219.21,262.69 -142.19,106.98 -337,110.76 -511.06,76.11 -174.06,-34.64 -341.06,-102.82 -517.06,-125.54 -103.69,-13.37 -183.15,48.83 -276.53,83.04 -85.68,31.4 -190.53,87.28 -222.28,184.03z"/>
  <path class="fil1" style="mask:url(#id0)" d="M94.41 679.98c-24,73.15 46.56,138.94 102.06,191.93 75.99,72.65 135.96,160.7 175.94,258.12 24.12,58.93 40.91,122.33 36.41,185.92 -12.75,180.35 -181.44,300.51 -316.22,419.98 -19.09,17.13 -38.19,35 -49.31,58.03 -35.72,73.91 25,159.08 91.87,206.22 238.15,167.76 581.9,117.86 812.9,-59.76 119.62,-92 222.43,-217.1 367.4,-258 92.69,-26.02 191.06,-13.69 286.97,-5.66 83.68,6.74 168.35,10.5 252.28,10.5 59.68,0 120.86,-1.88 180.17,-5.26 50.56,-3.14 103.43,-8.05 145.78,-36.02 107.21,-70.73 89.12,-238.44 166.49,-341.32 55.63,-73.94 150.66,-102.45 233.38,-143.32 127.09,-63.31 233.43,-162.66 305.54,-285.7 66.41,-113.81 100.82,-243.18 134.38,-370.74 25.31,-95.84 50.72,-196.21 29.28,-293.02 -21.44,-96.82 -106.06,-187.21 -204.19,-178.72 -75.34,6.51 -135.28,66.45 -207.84,87.91 -173.78,51.52 -342.53,-127.48 -522.84,-110.2 -113.53,10.85 -205.09,97.54 -274.31,188.78 -69.22,91.25 -127.81,193.98 -219.22,262.69 -142.18,106.98 -336.99,110.76 -511.05,76.12 -174.06,-34.65 -341.06,-102.83 -517.06,-125.55 -103.69,-13.37 -183.16,48.84 -276.53,83.04 -85.69,31.4 -190.53,87.28 -222.28,184.03z"/>
  <path class="fil0" d="M3216.55 1152.9c0,-22.4 -271.8,-40.55 -607.08,-40.55 -335.29,0 -607.09,18.15 -607.09,40.55 0,22.4 271.8,40.56 607.09,40.56 335.28,0 607.08,-18.16 607.08,-40.56z"/>
  <path class="fil2" d="M2242.44 224.66l0 0c17.53,-0.01 31.75,14.31 31.75,31.96l0 102.79 632.99 0 0 -102.82c0.02,-17.64 14.23,-31.94 31.75,-31.94 0.05,0 0.11,0 0.16,0l0 0.01 0 0c17.53,-0.01 31.75,14.31 31.75,31.96l0 102.79 18.87 0 0 -63.08c0,-13.83 11.14,-25.05 24.88,-25.05l0 0c13.73,0 24.87,11.22 24.87,25.05l0 22.43c0,-13.83 11.14,-25.04 24.88,-25.04l0 0c13.73,0 24.87,11.21 24.87,25.04l0 40.65 35.19 0c17.53,0 31.75,14.32 31.75,31.97l0 0 0 0c0,17.66 -14.22,31.97 -31.75,31.97l-35.19 0 0 40.56c0,13.83 -11.14,25.04 -24.87,25.04l0 0 0 0c-13.71,0 -24.83,-11.16 -24.88,-24.95l0 22.37c0,13.83 -11.14,25.05 -24.87,25.05l0 0 0 0c-13.74,0 -24.88,-11.22 -24.88,-25.05l0 -63.02 -18.87 0 0 722.13 -63.66 0 0 -722.13 -632.99 0 0 722.13 -63.5 0 0 -722.13 -18.88 0 0 63.02c0,13.83 -11.14,25.05 -24.87,25.05l0 0c-13.74,0 -24.88,-11.22 -24.88,-25.05l0 -22.35c-0.04,13.79 -11.16,24.96 -24.87,24.96l0 0c-13.74,0 -24.88,-11.21 -24.88,-25.04l0 -40.59 -35.15 0c-17.53,0 -31.75,-14.31 -31.75,-31.97l0 0c0,-17.65 14.22,-31.97 31.75,-31.97l35.15 0 0 -40.62c0,-13.83 11.14,-25.04 24.88,-25.04l0 0c13.73,0 24.87,11.21 24.87,25.03l0 -22.45c0,-13.83 11.14,-25.05 24.88,-25.05l0 0c13.73,0 24.87,11.22 24.87,25.05l0 63.08 18.88 0 0 -102.82c0.01,-17.64 14.23,-31.94 31.75,-31.94 0,0 0,0 0,0l0 0.01zm284.93 372.02l129.81 0c29.34,0 53.13,23.96 53.13,53.49l0 224.53 -100.84 0 0 87 100.71 0 0 31.87 -25.9 0 0 107.2 -34.53 0 0 -107.2 -109.35 0 0 107.2 -34.53 0 0 -107.2 -31.62 0 0 -31.87 100.69 0 0 -87 -100.57 0 0 -224.53c0,0 0,0 0,0 0,-29.49 23.72,-53.42 53.01,-53.49l-0.01 0z"/>
  <path class="fil0" d="M2802.21 1827.9c0,-52.79 -579.67,-95.59 -1294.73,-95.59 -715.07,0 -1294.74,42.8 -1294.74,95.59 0,52.79 579.67,95.59 1294.74,95.59 715.06,0 1294.73,-42.8 1294.73,-95.59z"/>
  <path class="fil3" d="M1842.69 1487.49c0,0 89.19,40.56 132.34,40.56 0,0 46.04,11.58 71.88,23.19 25.84,11.61 126.59,17.37 126.59,17.37 0,0 117.97,43.45 132.34,63.74 14.38,20.3 57.53,-72.37 57.53,-72.37l-23.03 -57.92 -434.37 -84.01 -63.28 69.44z"/>
  <path class="fil4" d="M1842.69 1487.49c0,0 89.19,40.56 132.34,40.56 0,0 46.04,11.58 71.88,23.19 25.84,11.61 126.59,17.37 126.59,17.37 0,0 117.97,43.45 132.34,63.74 14.38,20.3 57.53,-72.37 57.53,-72.37l-23.03 -57.92 -434.37 -84.01 -63.28 69.44z"/>
  <path class="fil5" d="M2282.91 1614.98c0,0 54.65,72.37 31.65,115.88 -23,43.52 -14.37,43.46 0,46.35 14.38,2.89 94.94,20.29 103.59,-43.45 8.66,-63.75 25.91,-205.68 25.91,-205.68l-118.12 -11.61c0,0 31.78,107.2 -43.03,98.51z"/>
  <path class="fil6" d="M1603.88 1391.9l247.44 115.89c0,0 77.68,-60.86 71.87,-92.7l-287.72 -69.53 -31.59 46.34z"/>
  <path class="fil7" d="M1603.88 1391.9l247.44 115.89c0,0 77.68,-60.86 71.87,-92.7l-287.72 -69.53 -31.59 46.34z"/>
  <path class="fil3" d="M2642.56 1542.55l-26 63.72 -60.31 14.41c-16.86,-14.18 -35.02,-26.97 -54.02,-38 -32.47,-18.88 -75.19,-37.35 -115.62,-34.43 0,0 -161.13,-26.08 -169.75,-37.75 0,0 -103.59,-23.19 -126.59,-20.3 -11.1,1.39 -34.94,-6.64 -56.63,-15.35 -23.28,-9.44 -44.09,-19.42 -44.09,-19.42l74.81 -118.77c8.69,3.78 17.7,6.95 26.85,9.44 28.6,8.43 80.06,19.38 154.41,19.38 120.84,0 287.71,124.57 287.71,124.57 0,0 1.66,0.57 4.5,1.42 12.5,3.8 48.13,12.77 64.57,-1.42 20,-17.03 40.16,52.5 40.16,52.5z"/>
  <path class="fil7" d="M2642.56 1542.55l-26 63.72 -60.31 14.41c-16.86,-14.18 -35.02,-26.97 -54.02,-38 87.75,6.63 35.34,-90.9 35.34,-90.9l0.18 -0.01c12.5,3.81 48.12,12.77 64.56,-1.42 20.09,-17.33 40.25,52.2 40.25,52.2z"/>
  <path class="fil5" d="M2502.56 1585.12c0,0 69.59,98.26 40.31,153.61 -29.28,55.35 -18.31,55.31 0,59.03 18.32,3.71 120.91,25.83 131.88,-55.32 8.43,-62.39 1.03,-182.14 -2.85,-234.12 -0.97,-12.94 -11.69,-22.95 -24.58,-22.95 -0.74,0 -1.49,0.04 -2.23,0.1l-101.78 9.44c0,0 54.5,101.29 -40.75,90.21z"/>
  <polygon class="fil8" points="850.05,1681.59 852.92,1823.56 884.58,1846.71 993.92,1846.71 1014.04,1817.77 1014.04,1681.59 982.39,1652.61 878.83,1652.61 "/>
  <path class="fil9" d="M867.3 1684.49c0,0 20.15,130.35 0,141.96l-14.38 -2.89 -2.87 -139.04 17.25 -0.03z"/>
  <path class="fil8" d="M1103.23 1672.91l23.03 -23.19 109.37 0 23.04 23.19c0,0 28.78,84.01 5.75,139.04l-25.97 26.08 -109.38 0 -25.9 -23.19 0.06 -141.93z"/>
  <polygon class="fil7" points="850.05,1681.59 852.92,1823.56 884.58,1846.71 993.92,1846.71 1014.04,1817.77 1014.04,1681.59 982.39,1652.61 878.83,1652.61 "/>
  <path class="fil7" d="M1103.23 1672.91l23.03 -23.19 109.37 0 23.04 23.19c0,0 28.78,84.01 5.75,139.04l-25.97 26.08 -109.38 0 -25.9 -23.19 0.06 -141.93z"/>
  <path class="fil9" d="M1129.07 1678.7c0,0 23.03,101.41 0,136.14l-25.9 0 0 -141.93 25.9 5.79z"/>
  <path class="fil3" d="M1014.04 1192.01c0,0 11.5,112.99 11.5,127.46 0,14.48 -5.75,110.13 11.5,202.79 17.25,92.66 -11.5,208.54 -11.5,208.54l94.94 0 40.28 -312.88 -28.78 -165.12 -11.5 -52.13 -106.44 -8.66z"/>
  <path class="fil4" d="M1014.04 1192.01c0,0 11.5,112.99 11.5,127.46 0,14.48 -5.75,110.13 11.5,202.79 17.25,92.66 -11.5,208.54 -11.5,208.54l94.94 0 40.28 -312.88 -28.78 -165.12 -11.5 -52.13 -106.44 -8.66z"/>
  <path class="fil10" d="M996.79 905.22c0,0 -126.59,2.89 -25.9,214.36 0,0 25.9,86.91 25.9,101.41 0,14.51 129.47,14.47 143.75,0 14.28,-14.47 -23.03,-133.25 -23.03,-188.31 0,-55.06 -37.28,-144.83 -120.72,-127.46z"/>
  <path class="fil4" d="M996.79 905.22c0,0 -126.59,2.89 -25.9,214.36 0,0 25.9,86.91 25.9,101.41 0,14.51 129.47,14.47 143.75,0 14.28,-14.47 -23.03,-133.25 -23.03,-188.31 0,-55.06 -37.28,-144.83 -120.72,-127.46z"/>
  <path class="fil3" d="M844.3 780.59c0,0 109.37,118.78 201.4,31.87l-11.5 307.09c0,0 -149.62,-182.49 -253.12,-168.02l63.22 -170.94z"/>
  <path class="fil7" d="M2091.1 1346.44c-4.38,33.95 -18.13,105.43 -57.6,128.59 -23.28,-9.44 -44.09,-19.41 -44.09,-19.41l74.81 -118.78c8.7,3.8 17.71,7.06 26.86,9.61l0.02 -0.01z"/>
  <path class="fil6" d="M2084.38 1328.06c0,0 -8.63,141.97 -77.69,153.55l-417.12 -75.77c-20.22,-3.7 -39.3,-12.35 -55.44,-25.16 -16.84,-13.35 -37.5,-31.47 -49.72,-48.08 -6.62,-9.06 -10.62,-17.72 -9.97,-24.86 2.88,-31.87 129.47,-107.2 86.31,-240.45 6.13,-4.89 12.97,-8.85 20.25,-11.71 36.03,-15.07 118.97,-26.14 238.69,98.61 0,0.16 221.53,179.79 264.69,173.87z"/>
  <polygon class="fil8" points="956.51,1693.17 959.39,1835.14 991.01,1858.32 1100.36,1858.32 1120.51,1829.35 1120.51,1693.17 1088.85,1664.22 985.26,1664.22 "/>
  <path class="fil9" d="M973.76 1696.19c0,0 20.16,130.36 0,141.97l-14.37 -2.9 -2.88 -139.07 17.25 0z"/>
  <path class="fil8" d="M1273.01 1681.59l23.03 -23.19 109.37 0 23.04 23.19c0,0 28.78,84.01 5.75,139.04l-25.91 26.08 -109.37 0 -25.91 -23.18 0 -141.94z"/>
  <path class="fil9" d="M1298.88 1687.38c0,0 23.04,101.41 0,136.15l-25.9 0 0 -141.94 25.9 5.79z"/>
  <path class="fil8" d="M1119.7 1736.65l155.65 0c12.19,0 22.07,11.02 22.07,24.64l0 0c0,13.59 -9.88,24.64 -22.07,24.64l-155.65 0c-13.22,0 -23.47,-12.87 -21.88,-27.5l0 0c1.29,-12.43 10.72,-21.78 21.88,-21.78z"/>
  <path class="fil7" d="M1569.35 1284.71c-30.78,21.71 -63.22,35.93 -84.97,48.04 -6.62,-9.06 -10.62,-17.71 -9.97,-24.85 2.88,-31.88 129.47,-107.2 86.32,-240.45 6.12,-4.89 12.96,-8.85 20.24,-11.71 6.75,-0.14 13.49,-1.08 20.03,-2.76 6.55,-1.69 25.88,191.17 -31.65,231.73z"/>
  <path class="fil10" d="M923.42 1005.15c0,0 43.16,43.45 84.87,70.98 38.5,25.39 -30.21,-230.31 -30.21,-230.31 0,0 42.62,-34.61 67.65,-55.16 15.34,-12.7 34.61,-19.67 54.48,-19.67 1.71,0 3.45,0.07 5.15,0.16 57.59,3.75 163.09,28.13 248.22,145.68 123.72,170.91 235.93,136.15 235.93,136.15 0,0 25.91,191.2 -31.65,231.76 -57.57,40.56 -120.85,55.03 -109.38,78.22 11.47,23.19 -51.78,-112.99 -195.65,-136.15 -143.88,-23.15 -302.12,-124.56 -299.22,-173.8 0.03,-0.04 -41.69,-33.29 -30.19,-47.86z"/>
  <path class="fil7" d="M893.2 856.1c0,-8.37 -0.76,-16.74 -2.19,-24.97 -37.68,-18.88 -32.34,-44.55 -32.34,-44.55l-63.31 170.91c23.15,-3.15 48.62,3.4 74.19,15.73 33.65,-26.78 23.65,-70.9 23.65,-117.12z"/>
  <ellipse class="fil3" cx="766.61" cy="853.08" rx="143.87" ry="144.86"/>
  <path class="fil7" d="M635.89 885.74c-2.66,8.59 -6.75,17.43 -14.47,22.03 -9.37,5.6 -22.31,2.83 -30.65,-4.41 -8.35,-7.23 -12.85,-18.06 -15.19,-28.88 -1.45,-6.74 -2.19,-13.65 -2.19,-20.56 0,-9.05 1.27,-18.1 3.75,-26.8 3.75,-13.06 10.22,-25.17 12.94,-38.54 2.91,-14.22 1.44,-29.11 4.69,-43.26 4.4,-19.2 16.97,-35.28 29.22,-50.66 7.75,-11.86 19.97,-20.05 33.84,-22.65l60.21 -18.28c11.39,-3.83 23.19,-6.68 35.06,-8.43 4.11,-0.42 8.26,-0.64 12.38,-0.64 11.23,0 22.42,1.57 33.22,4.66 11.79,2.98 22.98,8.03 33.06,14.86 9.98,7.45 18.82,16.45 26.1,26.59 31.85,41.91 50,110.47 82.84,151.71 -12.96,4.03 -25.93,-9.44 -38.9,-5.34 -1.14,0.49 -2.37,0.74 -3.62,0.74 -0.75,0 -1.5,-0.09 -2.23,-0.28 -1.93,-1.05 -3.44,-2.74 -4.28,-4.78 -11.41,-20.08 -29.43,-35.61 -50.9,-43.86 -15.94,-6.07 -37.5,-6.04 -46.22,8.69 -5.91,9.94 -3.53,22.49 -1.97,33.98 1.56,11.48 1.28,25.17 -7.75,32.25 -4.99,3.39 -10.8,5.37 -16.81,5.72 -7.97,1.06 -16.05,1.58 -24.08,1.58 -20.12,0 -40.16,-3.32 -59.23,-9.79 -9.37,-3.15 -18.9,-12.99 -28.81,-9.85 -13.38,4.25 -16.48,22.78 -20.01,34.2z"/>
  <path class="fil11" d="M632.74 882.56c-2.66,8.59 -6.75,17.44 -14.47,22.03 -9.38,5.6 -22.32,2.83 -30.66,-4.41 -8.34,-7.23 -12.84,-18.06 -15.19,-28.88 -1.44,-6.74 -2.18,-13.65 -2.18,-20.55 0,-9.06 1.27,-18.11 3.75,-26.81 3.75,-13.05 10.22,-25.17 12.93,-38.54 2.91,-14.22 1.44,-29.1 4.69,-43.26 4.41,-19.2 16.97,-35.27 29.22,-50.66 7.75,-11.86 19.97,-20.05 33.84,-22.65l60.22 -18.28c11.39,-3.82 23.19,-6.67 35.06,-8.4 4.1,-0.41 8.25,-0.64 12.37,-0.64 11.23,0 22.43,1.57 33.22,4.66 11.79,2.98 22.98,8.03 33.06,14.86 9.98,7.45 18.82,16.46 26.11,26.59 31.84,41.91 50,110.47 82.84,151.72 -12.97,4.03 -25.94,-9.44 -38.91,-5.35 -1.14,0.49 -2.37,0.75 -3.61,0.75 -0.76,0 -1.51,-0.1 -2.23,-0.28 -1.95,-1.05 -3.49,-2.74 -4.35,-4.78 -11.41,-20.09 -29.43,-35.61 -50.9,-43.86 -15.94,-6.08 -37.5,-6.05 -46.22,8.68 -5.91,9.94 -3.53,22.5 -1.97,33.98 1.56,11.48 1.28,25.17 -7.75,32.25 -4.99,3.39 -10.8,5.37 -16.81,5.73 -7.97,1.05 -16.05,1.58 -24.08,1.58 -20.12,0 -40.16,-3.33 -59.23,-9.8 -9.37,-3.14 -18.9,-12.99 -28.81,-9.84 -13.32,4.21 -16.41,22.74 -19.94,34.16z"/>
  <g id="_2431176750864">
   <path class="fil12" d="M987.83 837.92l-9.75 7.93c0,0 40.28,149.86 41.87,208.73 20.56,-5.6 -19,-165.94 -32.12,-216.66z"/>
   <path class="fil7" d="M1563.44 1261.55c-57.53,40.56 -120.84,55.03 -109.37,78.22 11.47,23.19 -51.78,-112.99 -195.65,-136.15 -134.97,-21.74 -282.6,-112.32 -297.97,-164.11 -21.56,-18.57 -37.25,-34.33 -37.25,-34.33 -11.5,14.47 30.22,47.79 30.22,47.79 -2.88,49.24 155.37,150.65 299.22,173.81 143.84,23.16 207.15,159.33 195.65,136.14 -11.5,-23.18 51.78,-37.75 109.37,-78.21 16.47,-11.61 26.1,-35.56 31.47,-63.84 -5.56,17.9 -13.81,32.4 -25.69,40.68z"/>
  </g>
  <path class="fil3" d="M1273.01 1539.66c-8.63,11.58 -14.38,130.35 -14.38,130.35 0,0 34.38,170.92 -71.87,153.55 -106.25,-17.37 -14.37,-139.04 -14.37,-139.04l-14.38 -168.02c-54.66,-144.73 -43.16,-249.13 -43.16,-249.13l-10.21 -94.61 -4.19 -38.64 123.72 -28.98c-3.38,4.53 -1.94,32.79 1.09,65.6 4.72,51.42 13.28,114 13.28,114 25.81,28.94 43.09,243.31 34.47,254.92z"/>
  <path class="fil7" d="M1097.48 844.4c0,0 -126.59,2.89 -25.91,214.36 0,0 25.91,86.91 25.91,101.41 0,14.51 129.47,14.47 143.75,0 14.28,-14.47 -23.03,-133.25 -23.03,-188.31 0,-55.06 -37.28,-144.86 -120.72,-127.46z"/>
  <path class="fil7" d="M1225.17 1170.74c-26.88,7.4 -92.75,8.06 -120.66,2.02l-4.19 -38.64 123.72 -28.98c-3.31,4.5 -1.87,32.75 1.13,65.6z"/>
  <path class="fil10" d="M1091.73 844.4c0,0 -126.59,2.89 -25.91,214.36 0,0 25.91,86.91 25.91,101.41 0,14.51 129.47,14.47 143.75,0 14.28,-14.47 -23.03,-133.25 -23.03,-188.31 0,-55.06 -37.28,-144.86 -120.72,-127.46z"/>
  <path class="fil0" d="M687.48 2042.26c0,-38.4 -101.77,-69.53 -227.31,-69.53 -125.54,0 -227.31,31.13 -227.31,69.53 0,38.41 101.77,69.54 227.31,69.54 125.54,0 227.31,-31.13 227.31,-69.54z"/>
  <g id="_2431054120640">
   <polygon class="fil2" points="185.02,1303.8 93.4,1305.69 78.46,1326.39 78.46,1397.95 97.15,1411.13 185.02,1411.13 203.74,1390.42 203.74,1322.65 "/>
   <path class="fil13" d="M183.18 1315.1c0,0 -84.15,13.18 -91.62,0l1.87 -9.44 89.75 -1.89 0 11.33z"/>
   <path class="fil2" d="M192.52 1510.9l14.97 15.07 0 71.55 -14.97 15.07c0,0 -54.21,18.88 -89.75,3.78l-16.84 -16.96 0 -71.55 14.97 -16.96 91.62 0z"/>
   <path class="fil13" d="M188.77 1527.86c0,0 -65.43,15.07 -87.87,0l0 -16.96 91.62 0 -3.75 16.96z"/>
   <path class="fil2" d="M156.99 1410.62l0 101.85c-0.43,8.11 -7.1,14.46 -15.16,14.46 -0.25,0 -0.5,-0.01 -0.74,-0.02l0 0c-0.25,0.01 -0.5,0.02 -0.74,0.02 -8.07,0 -14.73,-6.35 -15.17,-14.46l0 -101.85c0,-8.65 8.31,-15.35 17.75,-14.34l0 0c7.64,0.45 13.71,6.64 14.06,14.34l0 0z"/>
   <polygon class="fil2" points="331.77,1306.7 240.15,1308.59 225.18,1329.29 225.18,1400.84 243.9,1414.02 331.77,1414.02 350.46,1393.32 350.46,1325.55 "/>
   <path class="fil13" d="M329.9 1318.03c0,0 -84.16,13.18 -91.63,0l1.88 -9.45 89.75 -1.88 0 11.33z"/>
   <path class="fil2" d="M339.24 1513.83l14.97 15.07 0 71.55 -14.97 15.07c0,0 -54.22,18.88 -89.75,3.77l-16.84 -16.95 0 -71.59 14.97 -16.96 91.62 0.04z"/>
   <path class="fil13" d="M335.52 1530.75c0,0 -65.43,15.07 -87.87,0l0 -16.96 91.62 0 -3.75 16.96z"/>
   <path class="fil2" d="M303.65 1413.52l0 101.85c-0.44,8.1 -7.1,14.46 -15.17,14.46 -0.24,0 -0.49,-0.01 -0.74,-0.02l0 0c-0.24,0.01 -0.49,0.02 -0.74,0.02 -8.06,0 -14.73,-6.36 -15.16,-14.46l0 -101.85c0,-8.65 8.31,-15.36 17.75,-14.35l0 0c7.64,0.46 13.71,6.65 14.06,14.35l0 0z"/>
   <polygon class="fil2" points="518.58,1361.19 443.15,1362.74 430.83,1379.79 430.83,1438.69 446.24,1449.51 518.58,1449.51 533.96,1432.46 533.96,1376.67 "/>
   <path class="fil13" d="M517.02 1370.48c0,0 -69.28,10.85 -75.43,0l1.53 -7.74 73.87 -1.54 0.03 9.28z"/>
   <path class="fil2" d="M524.74 1531.67l12.31 12.39 0 58.9 -12.31 12.4c0,0 -44.63,15.51 -73.88,3.15l-13.87 -13.94 0 -58.96 12.31 -13.94 75.44 0z"/>
   <path class="fil13" d="M521.65 1545.61c0,0 -53.88,12.39 -72.35,0l0 -13.94 75.44 0 -3.09 13.94z"/>
   <path class="fil2" d="M495.49 1449.1l0 83.86c-0.39,6.65 -5.86,11.84 -12.48,11.84 -0.2,0 -0.41,-0.01 -0.61,-0.02l0 0.01c-0.2,0 -0.41,0.01 -0.61,0.01 -6.65,0 -12.13,-5.23 -12.49,-11.91l0 -83.79c0.42,-6.72 5.95,-11.95 12.64,-11.95 0.66,0 1.33,0.05 1.99,0.15l0 0c6.28,0.38 11.27,5.47 11.56,11.8l0 0z"/>
   <polygon class="fil2" points="639.36,1363.55 563.93,1365.13 551.61,1382.15 551.61,1441.05 567.02,1451.91 639.36,1451.91 654.77,1434.85 654.77,1379.07 "/>
   <path class="fil13" d="M637.83 1372.87c0,0 -69.28,10.85 -75.43,0l1.53 -7.74 73.87 -1.55 0.03 9.29z"/>
   <path class="fil2" d="M645.52 1534.06l12.31 12.39 0 58.9 -12.31 12.4c0,0 -44.63,15.51 -73.88,3.15l-13.84 -13.94 0 -59.03 12.31 -13.94 75.41 0.07z"/>
   <path class="fil13" d="M642.46 1547.93c0,0 -53.88,12.4 -72.35,0l0 -13.94 75.41 0 -3.06 13.94z"/>
   <path class="fil2" d="M616.14 1451.5l0 83.85c-0.35,6.67 -5.83,11.9 -12.48,11.9 -0.2,0 -0.41,0 -0.61,-0.01l0 0c-0.2,0.01 -0.41,0.01 -0.61,0.01 -6.64,0 -12.12,-5.23 -12.48,-11.9l0 -83.85c0.41,-6.72 5.95,-11.97 12.63,-11.97 0.67,0 1.34,0.06 2,0.16l-0.01 0.01c6.28,0.37 11.28,5.47 11.57,11.79l-0.01 0.01z"/>
  </g>
  <g id="_2431054111776">
   <path class="fil14" d="M395.27 1862.95c0,0 -44.28,-15.1 -65.63,24.2 -5.46,10.35 -8.32,21.91 -8.32,33.63 0,12.39 3.2,24.59 9.26,35.37 14,25.48 42.84,58.55 97.5,55.62 46.37,-2.48 61.78,-38.13 65.97,-71.26 0.4,-3.12 0.61,-6.28 0.61,-9.43 0,-40.43 -32.57,-73.21 -72.72,-73.21 -8.33,0 -16.61,1.45 -24.45,4.26l-2.22 0.82z"/>
   <path class="fil15" d="M339.99 1959.64c-6.07,-10.77 -9.27,-22.97 -9.27,-35.36 0,-11.73 2.87,-23.29 8.33,-33.64 21.31,-39.3 65.62,-24.19 65.62,-24.19l2.28 -0.82c7.87,-2.87 16.17,-4.34 24.53,-4.34 9.43,0 18.8,1.87 27.51,5.5 -11.16,-6.7 -23.93,-10.25 -36.92,-10.25 -8.36,0 -16.66,1.47 -24.52,4.33l-2.28 0.82c0,0 -44.28,-15.1 -65.63,24.2 -5.46,10.35 -8.32,21.91 -8.32,33.64 0,12.39 3.2,24.58 9.26,35.36 9.38,16.77 25,36.81 50,47.73 -17.16,-10.33 -31.2,-25.21 -40.59,-42.98l0 0z"/>
   <path class="fil16" d="M372.39 1881.83c0,0 16.41,12.99 56.25,0m-56.25 0l0 0 0 0z"/>
   <path class="fil17" d="M368.89 1787.44c0,0 28.13,76.77 25.82,96.84l22.28 -2.36c0,0 -37.5,-67.3 -28.13,-94.39l-19.97 -0.09z"/>
   <path class="fil16" d="M368.89 1787.44c0,0 28.13,76.77 25.82,96.84l22.28 -2.36c0,0 -37.5,-67.3 -28.13,-94.39l-19.97 -0.09z"/>
   <path class="fil14" d="M483.77 1793.73c0,0 -44.31,-22.81 -64.13,-3.97 -19.81,18.85 -22.87,67.02 -22.87,67.02 0,0 72.25,10.04 87,-63.05z"/>
   <path class="fil15" d="M483.77 1793.73c0,0 -44.31,-22.81 -64.13,-3.97 -19.81,18.85 -22.87,67.02 -22.87,67.02 0,0 72.25,10.04 87,-63.05z"/>
   <path class="fil18 str0" d="M396.77 1856.66c0,0 11.62,-55.91 87,-62.93"/>
  </g>
  <path class="fil8" d="M582.2 1932.45c0,0 -44.28,-15.1 -65.62,24.2 -5.46,10.35 -8.33,21.91 -8.33,33.64 0,12.39 3.2,24.59 9.27,35.36 14,25.48 42.84,58.55 97.5,55.63 46.37,-2.49 61.78,-38.14 65.97,-71.27 0.4,-3.12 0.6,-6.28 0.6,-9.42 0,-40.43 -32.56,-73.22 -72.72,-73.22 -8.33,0 -16.61,1.45 -24.45,4.26l-2.22 0.82z"/>
  <path class="fil19" d="M527.02 2029.17c-6.07,-10.77 -9.27,-22.97 -9.27,-35.36 0,-11.72 2.87,-23.28 8.33,-33.63 21.31,-39.3 65.62,-24.2 65.62,-24.2l2.28 -0.82c7.87,-2.86 16.17,-4.33 24.53,-4.33 9.43,0 18.8,1.87 27.51,5.49 -11.16,-6.69 -23.93,-10.24 -36.92,-10.24 -8.36,0 -16.66,1.47 -24.52,4.33l-2.28 0.82c0,0 -44.28,-15.11 -65.63,24.19 -5.46,10.36 -8.32,21.92 -8.32,33.64 0,12.39 3.19,24.59 9.26,35.36 9.38,16.77 25,36.82 50,47.73 -17.16,-10.32 -31.2,-25.21 -40.59,-42.98l0 0z"/>
  <path class="fil20" d="M559.42 1951.33c0,0 16.41,13 56.25,0m-56.25 0l0 0 0 0z"/>
  <path class="fil8" d="M555.89 1856.88c0,0 28.13,76.77 25.81,96.84l22.29 -2.36c0,0 -37.5,-67.3 -28.13,-94.39l-19.97 -0.09z"/>
  <path class="fil20" d="M555.89 1856.88c0,0 28.13,76.77 25.81,96.84l22.29 -2.36c0,0 -37.5,-67.3 -28.13,-94.39l-19.97 -0.09z"/>
  <path class="fil8" d="M670.8 1863.26c0,0 -44.32,-22.81 -64.13,-3.96 -19.81,18.85 -22.87,67.02 -22.87,67.02 0,0 72.25,10 87,-63.06z"/>
  <path class="fil19" d="M670.8 1863.26c0,0 -44.32,-22.81 -64.13,-3.96 -19.81,18.85 -22.87,67.02 -22.87,67.02 0,0 72.25,10 87,-63.06z"/>
  <path class="fil21 str1" d="M583.8 1926.32c0,0 11.62,-55.91 87,-62.93"/>
  <path class="fil8" d="M225.96 1750.21c0,0 4.34,-4.87 -3.82,-6.82l0 -8.03 4.91 0c0,-19.98 -13.9,-37.25 -33.31,-41.41l0 -9.72 1.28 0 0 -12.58 -31.56 0 0 12.58 0.9 0 0 9.85c-19.14,4.37 -32.74,21.51 -32.74,41.28l4.37 0 0 7.71c0,0 -10.38,4.94 0,13.75 10.37,8.81 8.75,15.39 8.75,15.39 0,0 -4.38,16.48 -13.09,18.69l0 153.38c0,18.82 15.15,34.08 33.84,34.08l26.75 0c18.63,-0.07 33.7,-15.29 33.72,-34.04l0 -153.42c0,0 -15.28,-11.55 -12.5,-18.69 3.61,-7.61 7.83,-15.01 12.51,-22l-0.01 0z"/>
 </g>
</svg>
