<?xml version="1.0" encoding="UTF-8"?>
<!DOCTYPE svg PUBLIC "-//W3C//DTD SVG 1.1//EN" "http://www.w3.org/Graphics/SVG/1.1/DTD/svg11.dtd">
<!-- Creator: CorelDRAW 2018 (64 Bit Versão de avaliação) -->
<svg xmlns="http://www.w3.org/2000/svg" xml:space="preserve" width="297mm" height="58.5mm" version="1.1" style="shape-rendering:geometricPrecision; text-rendering:geometricPrecision; image-rendering:optimizeQuality; fill-rule:evenodd; clip-rule:evenodd"
viewBox="0 0 29700 5850"
 xmlns:xlink="http://www.w3.org/1999/xlink">
 <defs>
  <style type="text/css">
   <![CDATA[
    .fil2 {fill:#FEFEFE}
    .fil3 {fill:#E6E7E8}
    .fil1 {fill:#FEFEFE;fill-rule:nonzero}
    .fil0 {fill:#E6E7E8;fill-rule:nonzero}
   ]]>
  </style>
 </defs>
 <g id="Camada_x0020_1">
  <metadata id="CorelCorpID_0Corel-Layer"/>
  <path class="fil0" d="M18566.76 5577.85c0,33.1 -11.26,59.41 -33.13,76.34 -22.77,17.63 -53.29,28.81 -93.62,37.45 -38.89,8.64 -96.51,12.97 -172.85,12.97 -72.01,0 -131.07,-4.33 -174.28,-12.97 -43.21,-8.64 -74.9,-20.16 -95.06,-37.45 -20.17,-17.28 -30.25,-41.77 -30.25,-76.34l0 -380.25c-165.64,177.16 -350.01,315.44 -554.54,413.38 -204.53,96.51 -420.59,145.48 -648.17,145.48 -200.2,0 -381.69,-25.93 -543.01,-77.78 -161.32,-51.85 -299.6,-128.19 -413.38,-226.14 -113.79,-97.94 -203.1,-220.37 -266.47,-362.97 -63.38,-144.03 -95.07,-306.8 -95.07,-489.72 0,-214.62 43.21,-400.43 131.08,-557.42 86.42,-158.45 211.73,-289.52 375.93,-393.22 162.76,-103.71 362.97,-182.93 599.19,-234.78 236.22,-51.86 502.69,-77.78 797.96,-77.78l524.29 0c0,-181.46 -32.89,-377.94 -195.88,-545.61 -71.04,-73.08 -158.68,-130.44 -267.91,-168.52 -109.68,-38.24 -244.86,-57.62 -404.74,-57.62 -171.41,0 -325.47,20.38 -460.92,61.94 -136.76,41.96 -256.4,86.43 -358.65,136.83 -102.25,50.4 -188.9,94.76 -257.82,136.83 -67.89,41.44 -119.55,61.94 -152.68,61.94 -23.05,0 -42.66,-6.59 -59.06,-17.28 -16.75,-10.92 -31.39,-27.56 -44.65,-50.42 -12.64,-21.77 -21.73,-50.4 -27.36,-84.97 -5.87,-35.99 -8.65,-73.47 -8.65,-116.68 0,-69.13 4.33,-125.32 14.41,-165.64 10.07,-40.31 34.58,-79.23 72.01,-115.23 37.44,-36 103.42,-79.78 195.89,-129.63 91.88,-49.52 200.08,-95.5 321.2,-136.83 119.4,-40.75 252.11,-74.78 396.11,-102.27 142.61,-27.22 288.07,-40.33 433.54,-40.33 272.23,0 504.13,30.25 695.7,92.18 191.57,61.94 345.69,154.12 463.8,273.67 118.1,119.55 203.09,267.91 256.38,445.07 53.29,177.17 80.66,376.11 80.66,612.3l0 2151.47zm-691.38 -1739.96l-594.86 0c-190.13,0 -355.77,15.85 -496.93,48.98 -139.71,31.69 -256.38,80.66 -350.01,144.03 -92.18,63.38 -159.88,138.28 -204.53,227.58 -43.21,89.3 -64.81,191.57 -64.81,306.8 0,197.33 61.93,354.33 187.24,471 125.31,116.67 299.6,175.72 525.73,175.72 181.49,0 351.45,-46.09 507.01,-139.71 155.56,-92.19 319.76,-234.78 491.16,-426.35l0 -808.05z"/>
  <path class="fil0" d="M13580.4 5577.85c0,33.1 -11.26,59.41 -33.12,76.34 -22.78,17.63 -53.3,28.81 -93.63,37.45 -38.89,8.64 -96.5,12.97 -172.84,12.97 -72.02,0 -131.07,-4.33 -174.29,-12.97 -43.21,-8.64 -74.9,-20.16 -95.06,-37.45 -20.17,-17.28 -30.25,-41.77 -30.25,-76.34l0 -380.25c-165.64,177.16 -350.01,315.44 -554.54,413.38 -204.53,96.51 -420.59,145.48 -648.16,145.48 -200.21,0 -381.7,-25.93 -543.02,-77.78 -161.32,-51.85 -299.59,-128.19 -413.38,-226.14 -113.79,-97.94 -203.1,-220.37 -266.47,-362.97 -63.38,-144.03 -95.07,-306.8 -95.07,-489.72 0,-214.62 43.21,-400.43 131.08,-557.42 86.42,-158.45 211.73,-289.52 375.93,-393.22 162.76,-103.71 362.97,-182.93 599.2,-234.78 236.21,-51.86 502.68,-77.78 797.95,-77.78l524.3 0c0,-181.46 -32.9,-377.94 -195.89,-545.61 -71.03,-73.08 -158.67,-130.44 -267.91,-168.52 -109.68,-38.24 -244.86,-57.62 -404.74,-57.62 -171.4,0 -325.47,20.38 -460.92,61.94 -136.76,41.96 -256.39,86.43 -358.65,136.83 -102.25,50.4 -188.9,94.76 -257.82,136.83 -67.89,41.44 -119.55,61.94 -152.68,61.94 -23.05,0 -42.66,-6.59 -59.06,-17.28 -16.75,-10.92 -31.39,-27.56 -44.65,-50.42 -12.64,-21.77 -21.73,-50.4 -27.36,-84.97 -5.87,-35.99 -8.65,-73.47 -8.65,-116.68 0,-69.13 4.34,-125.32 14.41,-165.64 10.07,-40.31 34.58,-79.23 72.01,-115.23 37.44,-36 103.42,-79.78 195.89,-129.63 91.88,-49.52 200.08,-95.5 321.2,-136.83 119.4,-40.75 252.11,-74.78 396.11,-102.27 142.61,-27.22 288.07,-40.33 433.55,-40.33 272.22,0 504.12,30.25 695.69,92.18 191.57,61.94 345.69,154.12 463.8,273.67 118.11,119.55 203.09,267.91 256.38,445.07 53.3,177.17 80.66,376.11 80.66,612.3l0 2151.47zm-691.37 -1739.96l-594.87 0c-190.13,0 -355.77,15.85 -496.93,48.98 -139.71,31.69 -256.38,80.66 -350,144.03 -92.19,63.38 -159.89,138.28 -204.54,227.58 -43.21,89.3 -64.81,191.57 -64.81,306.8 0,197.33 61.93,354.33 187.25,471 125.31,116.67 299.59,175.72 525.72,175.72 181.49,0 351.46,-46.09 507.01,-139.71 155.56,-92.19 319.76,-234.78 491.17,-426.35l0 -808.05z"/>
  <path class="fil0" d="M14879.26 5573.53c0,22.92 -5.44,42.06 -17.28,57.62 -11.15,14.64 -28.82,28.8 -54.74,40.33 -25.93,10.08 -60.5,18.72 -106.59,24.49 -44.65,5.76 -102.26,8.64 -172.84,8.64 -69.14,0 -125.31,-2.88 -169.96,-8.64 -46.09,-5.77 -82.1,-14.41 -108.03,-24.49 -27.37,-11.53 -46.46,-25.74 -56.17,-40.33 -10.39,-15.6 -14.41,-34.57 -14.41,-57.62l0 -5221.32c0,-23.04 4.67,-43.04 14.41,-59.05 10.37,-17.06 28.68,-32.09 56.17,-43.21 25.75,-10.42 61.98,-18.67 108.03,-24.49 44.63,-5.64 100.82,-8.64 169.96,-8.64 70.58,0 128.21,3 172.84,8.64 46.05,5.82 80.94,13.82 106.59,24.49 26.15,10.88 42.9,26.19 54.74,43.21 11.15,16.05 17.28,36.07 17.28,59.05l0 5221.32z"/>
  <path class="fil0" d="M22344.61 5573.53c0,22.84 -5.47,42.08 -17.29,57.62 -11.13,14.61 -28.81,28.8 -54.73,40.33 -25.93,10.08 -60.5,18.72 -106.59,24.49 -44.65,5.76 -100.83,8.64 -168.52,8.64 -72.02,0 -129.63,-2.88 -174.28,-8.64 -46.1,-5.77 -80.67,-14.41 -106.59,-24.49 -25.93,-11.53 -43.61,-25.71 -54.74,-40.33 -11.81,-15.54 -17.28,-34.57 -17.28,-57.62l0 -1804.48c0,-216.06 -17.5,-391.79 -50.41,-522.86 -33.25,-132.42 -81.82,-246.58 -146.92,-342.8 -64.43,-95.24 -146.97,-168.57 -249.18,-218.94 -102.22,-50.36 -220.38,-76.34 -354.33,-76.34 -174.29,0 -346.94,62.33 -519.97,185.81 -173.99,124.16 -355.77,305.36 -545.9,544.46l0 2235.15c0,22.95 -5.46,42.08 -17.28,57.62 -11.13,14.62 -28.81,28.8 -54.74,40.33 -25.93,10.08 -60.49,18.72 -106.59,24.49 -44.65,5.76 -102.26,8.64 -172.84,8.64 -69.14,0 -125.31,-2.88 -169.96,-8.64 -46.09,-5.77 -82.1,-14.41 -108.03,-24.49 -27.37,-11.53 -46.47,-25.76 -56.17,-40.33 -10.37,-15.58 -14.41,-34.57 -14.41,-57.62l0 -3378.8c0,-23.05 4.06,-42 12.97,-57.62 8.28,-14.53 24.53,-28.86 50.41,-41.77 25.88,-12.91 57.67,-21.58 97.94,-25.92 38.85,-4.2 92.19,-5.77 157,-5.77 61.94,0 113.84,1.57 154.12,5.77 41.72,4.34 73.69,12.7 96.51,25.92 21.73,12.6 39.76,26.88 48.97,41.77 9.44,15.3 14.4,34.68 14.4,57.62l0 502.69c213.18,-240.54 425.11,-416.03 638.08,-527.18 211.84,-110.56 424.91,-167.08 640.97,-167.08 252.06,0 465.57,42.68 638.08,128.19 173.08,85.79 312.95,201.45 419.14,344.25 106.88,143.73 182.98,312.61 229.02,505.57 46.04,192.95 69.14,425.01 69.14,694.25l0 1898.11z"/>
  <path class="fil0" d="M25796.16 4988.75c0,47.53 -1.45,89.3 -4.33,123.86 -2.88,36.02 -7.2,64.82 -14.4,89.31 -7.2,24.48 -15.85,44.65 -25.93,63.37 -10.08,18.73 -31.68,46.1 -67.69,80.66 -34.57,36.02 -95.07,79.23 -178.61,132.52 -84.98,51.85 -180.05,99.38 -285.19,139.71 -106.59,41.77 -220.38,74.9 -344.25,99.39 -123.87,25.92 -252.06,38.89 -384.57,38.89 -273.67,0 -515.66,-44.65 -725.95,-135.39 -211.73,-89.31 -388.9,-220.38 -530.05,-393.22 -142.6,-172.85 -244.11,-388.09 -325.53,-636.65 -133.61,-407.85 -158.84,-884.11 24.49,-1422.64 91.3,-268.19 217.13,-488.67 375.94,-659.69 159.47,-171.75 346.81,-299.04 561.74,-381.7 215.7,-82.95 449.39,-123.87 700.02,-123.87 120.99,0 237.51,12.37 351.44,34.57 115.06,22.42 219.28,51 315.44,87.86 95.38,36.57 180.96,80.07 254.95,128.19 74.34,48.35 129.65,89.32 162.76,122.43 34.56,34.57 58.46,61.41 70.58,80.66 12.36,19.64 23.53,43.09 31.69,70.58 7.65,25.78 12.91,56.2 15.84,90.74 2.8,33.13 4.32,76.34 4.32,126.76 0,109.46 -12.12,186.3 -37.45,230.45 -25.07,43.69 -56.18,64.82 -93.63,64.82 -41.76,0 -90.39,-23.48 -145.47,-70.58 -54.36,-46.49 -123.89,-97.96 -208.85,-154.11 -84.97,-56.16 -187.51,-107.43 -306.8,-154.13 -119.78,-46.88 -260.71,-70.57 -423.47,-70.57 -335.6,0 -593.11,128.44 -772.03,386.01 -308.7,444.39 -328.28,839.55 -198.77,1347.76 46.66,183.12 115.23,337.04 205.97,460.91 89.3,122.44 200.21,214.62 331.28,275.11 131.08,60.5 280.87,90.75 449.4,90.75 161.32,0 302.47,-25.93 423.46,-76.34 120.99,-50.42 224.7,-106.59 314,-168.53 89.31,-60.49 164.21,-115.23 224.7,-164.2 60.49,-50.41 106.58,-74.9 141.16,-74.9 18.72,0 36,5.77 50.41,17.29 14.4,11.52 25.93,30.24 36.01,56.17 10.08,27.37 17.28,60.5 21.6,102.27 4.32,40.33 5.77,89.3 5.77,145.48z"/>
  <path class="fil0" d="M29620 3933.18c0,109.45 -27.01,187.66 -82.1,234.78 -54.37,46.51 -118.12,69.14 -188.68,69.14l-2494.72 0c0,86.78 143.25,447.8 275.12,581.68 109.23,110.91 226.13,213.18 383.13,277.99 158.44,64.82 351.45,97.95 579.03,97.95 180.04,0 341.36,-14.41 481.08,-44.66 141.16,-28.8 263.59,-61.93 365.85,-97.94 102.27,-36.01 187.25,-69.14 253.51,-97.94 66.25,-30.25 115.22,-44.65 149.79,-44.65 20.17,0 37.45,4.32 53.3,14.4 14.4,10.08 27.36,24.48 34.57,44.65 8.64,18.72 15.84,46.09 20.16,80.66 4.32,36.01 5.76,77.78 5.76,128.19 0,36.01 -1.44,67.7 -4.32,95.07 -2.88,25.92 -5.76,50.41 -10.08,70.58 -4.32,21.6 -11.52,40.32 -21.61,57.61 -10.08,15.84 -21.6,31.69 -37.45,47.53 -15.84,15.85 -61.93,40.33 -136.83,74.9 -76.34,36.01 -174.28,69.14 -295.28,103.71 -120.99,33.12 -260.7,63.37 -419.14,89.3 -158.44,27.36 -326.97,40.33 -507.01,40.33 -312.56,0 -584.79,-43.21 -819.56,-131.07 -234.79,-86.42 -418.77,-229.56 -591.99,-387.46 -177.55,-161.85 -489.59,-647.49 -483.97,-1124.71 3.84,-325.5 42.22,-619.22 126.75,-880.06 83.98,-259.12 205.98,-481.08 364.42,-662.57 158.44,-181.48 351.19,-320.37 576.14,-417.7 224.43,-97.11 476.76,-145.48 754.75,-145.48 298.16,0 551.27,48.41 760.51,144.04 209.9,95.92 382.13,224.35 517.1,386.01 134.37,160.97 233.14,351.52 296.71,570.39 63.18,217.55 95.06,450.84 95.06,698.57l0 126.76zm-700.01 -205.97c8.64,-365.86 -72.02,-653.93 -243.43,-862.78 -171.39,-208.85 -423.46,-312.56 -759.06,-312.56 -172.85,0 -324.09,31.69 -453.72,96.5 -129.63,64.81 -237.31,151.53 -325.52,259.27 -87.51,106.87 -155.78,231.83 -203.09,373.05 -47.75,142.52 -74.9,290.96 -80.67,446.52l2065.49 0z"/>
  <path class="fil1" d="M18566.76 5454.57c0,33.09 -11.26,59.41 -33.13,76.34 -22.77,17.62 -53.29,28.8 -93.62,37.44 -38.89,8.65 -96.51,12.97 -172.85,12.97 -72.01,0 -131.07,-4.32 -174.28,-12.97 -43.21,-8.64 -74.9,-20.16 -95.06,-37.44 -20.17,-17.29 -30.25,-41.77 -30.25,-76.34l0 -380.26c-165.64,177.17 -350.01,315.44 -554.54,413.39 -204.53,96.5 -420.59,145.47 -648.17,145.47 -200.2,0 -381.69,-25.92 -543.01,-77.78 -161.32,-51.85 -299.6,-128.19 -413.38,-226.14 -113.79,-97.94 -203.1,-220.37 -266.47,-362.96 -63.38,-144.04 -95.07,-306.81 -95.07,-489.73 0,-214.62 43.21,-400.42 131.08,-557.42 86.42,-158.44 211.73,-289.51 375.93,-393.22 162.76,-103.71 362.97,-182.93 599.19,-234.78 236.22,-51.85 502.69,-77.78 797.96,-77.78l524.29 0c0,-181.46 -32.89,-377.93 -195.88,-545.61 -71.04,-73.07 -158.68,-130.44 -267.91,-168.52 -109.68,-38.23 -244.86,-57.62 -404.74,-57.62 -171.41,0 -325.47,20.38 -460.92,61.94 -136.76,41.96 -256.4,86.43 -358.65,136.84 -102.25,50.39 -188.9,94.75 -257.82,136.83 -67.89,41.43 -119.55,61.93 -152.68,61.93 -23.05,0 -42.66,-6.59 -59.06,-17.28 -16.75,-10.92 -31.39,-27.56 -44.65,-50.41 -12.64,-21.78 -21.73,-50.41 -27.36,-84.98 -5.87,-35.98 -8.65,-73.46 -8.65,-116.67 0,-69.14 4.33,-125.33 14.41,-165.65 10.07,-40.31 34.58,-79.23 72.01,-115.22 37.44,-36 103.42,-79.79 195.89,-129.64 91.88,-49.51 200.08,-95.5 321.2,-136.83 119.4,-40.75 252.11,-74.78 396.11,-102.27 142.61,-27.22 288.07,-40.33 433.54,-40.33 272.23,0 504.13,30.25 695.7,92.19 191.57,61.93 345.69,154.11 463.8,273.66 118.1,119.55 203.09,267.91 256.38,445.08 53.29,177.16 80.66,376.1 80.66,612.29l0 2151.48zm-691.38 -1739.96l-594.86 0c-190.13,0 -355.77,15.84 -496.93,48.97 -139.71,31.69 -256.38,80.66 -350.01,144.04 -92.18,63.37 -159.88,138.27 -204.53,227.57 -43.21,89.3 -64.81,191.57 -64.81,306.8 0,197.33 61.93,354.33 187.24,471 125.31,116.67 299.6,175.72 525.73,175.72 181.49,0 351.45,-46.09 507.01,-139.71 155.56,-92.18 319.76,-234.78 491.16,-426.35l0 -808.04z"/>
  <path class="fil1" d="M13580.4 5454.57c0,33.09 -11.26,59.41 -33.12,76.34 -22.78,17.62 -53.3,28.8 -93.63,37.44 -38.89,8.65 -96.5,12.97 -172.84,12.97 -72.02,0 -131.07,-4.32 -174.29,-12.97 -43.21,-8.64 -74.9,-20.16 -95.06,-37.44 -20.17,-17.29 -30.25,-41.77 -30.25,-76.34l0 -380.26c-165.64,177.17 -350.01,315.44 -554.54,413.39 -204.53,96.5 -420.59,145.47 -648.16,145.47 -200.21,0 -381.7,-25.92 -543.02,-77.78 -161.32,-51.85 -299.59,-128.19 -413.38,-226.14 -113.79,-97.94 -203.1,-220.37 -266.47,-362.96 -63.38,-144.04 -95.07,-306.81 -95.07,-489.73 0,-214.62 43.21,-400.42 131.08,-557.42 86.42,-158.44 211.73,-289.51 375.93,-393.22 162.76,-103.71 362.97,-182.93 599.2,-234.78 236.21,-51.85 502.68,-77.78 797.95,-77.78l524.3 0c0,-181.46 -32.9,-377.93 -195.89,-545.61 -71.03,-73.07 -158.67,-130.44 -267.91,-168.52 -109.68,-38.23 -244.86,-57.62 -404.74,-57.62 -171.4,0 -325.47,20.38 -460.92,61.94 -136.76,41.96 -256.39,86.43 -358.65,136.84 -102.25,50.39 -188.9,94.75 -257.82,136.83 -67.89,41.43 -119.55,61.93 -152.68,61.93 -23.05,0 -42.66,-6.59 -59.06,-17.28 -16.75,-10.92 -31.39,-27.56 -44.65,-50.41 -12.64,-21.78 -21.73,-50.41 -27.36,-84.98 -5.87,-35.98 -8.65,-73.46 -8.65,-116.67 0,-69.14 4.34,-125.33 14.41,-165.65 10.07,-40.31 34.58,-79.23 72.01,-115.22 37.44,-36 103.42,-79.79 195.89,-129.64 91.88,-49.51 200.08,-95.5 321.2,-136.83 119.4,-40.75 252.11,-74.78 396.11,-102.27 142.61,-27.22 288.07,-40.33 433.55,-40.33 272.22,0 504.12,30.25 695.69,92.19 191.57,61.93 345.69,154.11 463.8,273.66 118.11,119.55 203.09,267.91 256.38,445.08 53.3,177.16 80.66,376.1 80.66,612.29l0 2151.48zm-691.37 -1739.96l-594.87 0c-190.13,0 -355.77,15.84 -496.93,48.97 -139.71,31.69 -256.38,80.66 -350,144.04 -92.19,63.37 -159.89,138.27 -204.54,227.57 -43.21,89.3 -64.81,191.57 -64.81,306.8 0,197.33 61.93,354.33 187.25,471 125.31,116.67 299.59,175.72 525.72,175.72 181.49,0 351.46,-46.09 507.01,-139.71 155.56,-92.18 319.76,-234.78 491.17,-426.35l0 -808.04z"/>
  <path class="fil1" d="M14879.26 5450.25c0,22.91 -5.44,42.06 -17.28,57.61 -11.15,14.64 -28.82,28.81 -54.74,40.33 -25.93,10.09 -60.5,18.72 -106.59,24.49 -44.65,5.76 -102.26,8.64 -172.84,8.64 -69.14,0 -125.31,-2.88 -169.96,-8.64 -46.09,-5.77 -82.1,-14.4 -108.03,-24.49 -27.37,-11.52 -46.46,-25.74 -56.17,-40.33 -10.39,-15.59 -14.41,-34.57 -14.41,-57.61l0 -5221.32c0,-23.05 4.67,-43.05 14.41,-59.06 10.37,-17.05 28.68,-32.09 56.17,-43.21 25.75,-10.42 61.98,-18.67 108.03,-24.49 44.63,-5.63 100.82,-8.64 169.96,-8.64 70.58,0 128.21,3.01 172.84,8.64 46.05,5.82 80.94,13.82 106.59,24.49 26.15,10.88 42.9,26.19 54.74,43.21 11.15,16.05 17.28,36.07 17.28,59.06l0 5221.32z"/>
  <path class="fil1" d="M22344.61 5450.25c0,22.84 -5.47,42.08 -17.29,57.61 -11.13,14.62 -28.81,28.81 -54.73,40.33 -25.93,10.09 -60.5,18.72 -106.59,24.49 -44.65,5.76 -100.83,8.64 -168.52,8.64 -72.02,0 -129.63,-2.88 -174.28,-8.64 -46.1,-5.77 -80.67,-14.4 -106.59,-24.49 -25.93,-11.52 -43.61,-25.71 -54.74,-40.33 -11.81,-15.53 -17.28,-34.57 -17.28,-57.61l0 -1804.49c0,-216.06 -17.5,-391.79 -50.41,-522.85 -33.25,-132.42 -81.82,-246.58 -146.92,-342.81 -64.43,-95.24 -146.97,-168.57 -249.18,-218.94 -102.22,-50.36 -220.38,-76.34 -354.33,-76.34 -174.29,0 -346.94,62.34 -519.97,185.81 -173.99,124.17 -355.77,305.36 -545.9,544.46l0 2235.16c0,22.94 -5.46,42.08 -17.28,57.61 -11.13,14.62 -28.81,28.81 -54.74,40.33 -25.93,10.09 -60.49,18.72 -106.59,24.49 -44.65,5.76 -102.26,8.64 -172.84,8.64 -69.14,0 -125.31,-2.88 -169.96,-8.64 -46.09,-5.77 -82.1,-14.4 -108.03,-24.49 -27.37,-11.52 -46.47,-25.76 -56.17,-40.33 -10.37,-15.58 -14.41,-34.57 -14.41,-57.61l0 -3378.81c0,-23.04 4.06,-42 12.97,-57.61 8.28,-14.54 24.53,-28.86 50.41,-41.77 25.88,-12.91 57.67,-21.58 97.94,-25.93 38.85,-4.19 92.19,-5.76 157,-5.76 61.94,0 113.84,1.56 154.12,5.76 41.72,4.34 73.69,12.71 96.51,25.93 21.73,12.6 39.76,26.87 48.97,41.77 9.44,15.29 14.4,34.67 14.4,57.61l0 502.69c213.18,-240.54 425.11,-416.02 638.08,-527.17 211.84,-110.57 424.91,-167.09 640.97,-167.09 252.06,0 465.57,42.68 638.08,128.2 173.08,85.79 312.95,201.44 419.14,344.24 106.88,143.73 182.98,312.61 229.02,505.57 46.04,192.96 69.14,425.01 69.14,694.25l0 1898.12z"/>
  <path class="fil1" d="M25796.16 4868.75c0,47.53 -1.45,89.3 -4.33,123.87 -2.88,36.01 -7.2,64.82 -14.4,89.3 -7.2,24.49 -15.85,44.66 -25.93,63.38 -10.08,18.72 -31.68,46.09 -67.69,80.66 -34.57,36.01 -95.07,79.22 -178.61,132.51 -84.98,51.86 -180.05,99.39 -285.19,139.72 -106.59,41.77 -220.38,74.9 -344.25,99.38 -123.87,25.93 -252.06,38.89 -384.57,38.89 -273.67,0 -515.66,-44.65 -725.95,-135.39 -211.73,-89.3 -388.9,-220.38 -530.05,-393.22 -142.6,-172.85 -244.11,-388.09 -325.53,-636.64 -133.61,-407.86 -158.84,-884.12 24.49,-1422.65 91.3,-268.19 217.13,-488.66 375.94,-659.69 159.47,-171.75 346.81,-299.04 561.74,-381.7 215.7,-82.95 449.39,-123.87 700.02,-123.87 120.99,0 237.51,12.37 351.44,34.57 115.06,22.42 219.28,51 315.44,87.86 95.38,36.57 180.96,80.07 254.95,128.2 74.34,48.35 129.65,89.32 162.76,122.43 34.56,34.56 58.46,61.4 70.58,80.66 12.36,19.64 23.53,43.08 31.69,70.57 7.65,25.78 12.91,56.21 15.84,90.75 2.8,33.12 4.32,76.34 4.32,126.75 0,109.47 -12.12,186.3 -37.45,230.46 -25.07,43.69 -56.18,64.82 -93.63,64.82 -41.76,0 -90.39,-23.48 -145.47,-70.58 -54.36,-46.5 -123.89,-97.97 -208.85,-154.12 -84.97,-56.16 -187.51,-107.42 -306.8,-154.12 -119.78,-46.89 -260.71,-70.58 -423.47,-70.58 -335.6,0 -593.11,128.45 -772.03,386.02 -308.7,444.39 -328.28,839.54 -198.77,1347.75 46.66,183.13 115.23,337.05 205.97,460.92 89.3,122.43 200.21,214.61 331.28,275.1 131.08,60.5 280.87,90.75 449.4,90.75 161.32,0 302.47,-25.93 423.46,-76.34 120.99,-50.41 224.7,-106.59 314,-168.52 89.31,-60.5 164.21,-115.23 224.7,-164.2 60.49,-50.41 106.58,-74.9 141.16,-74.9 18.72,0 36,5.76 50.41,17.28 14.4,11.52 25.93,30.25 36.01,56.18 10.08,27.36 17.28,60.49 21.6,102.26 4.32,40.33 5.77,89.3 5.77,145.48z"/>
  <path class="fil1" d="M29620 3809.89c0,109.45 -27.01,187.67 -82.1,234.78 -54.37,46.51 -118.12,69.14 -188.68,69.14l-2494.72 0c0,86.78 143.25,447.8 275.12,581.69 109.23,110.9 226.13,213.17 383.13,277.99 158.44,64.81 351.45,97.94 579.03,97.94 180.04,0 341.36,-14.41 481.08,-44.65 141.16,-28.81 263.59,-61.94 365.85,-97.94 102.27,-36.02 187.25,-69.14 253.51,-97.95 66.25,-30.25 115.22,-44.65 149.79,-44.65 20.17,0 37.45,4.32 53.3,14.4 14.4,10.08 27.36,24.49 34.57,44.65 8.64,18.73 15.84,46.1 20.16,80.66 4.32,36.01 5.76,77.79 5.76,128.2 0,36 -1.44,67.69 -4.32,95.06 -2.88,25.93 -5.76,50.41 -10.08,70.58 -4.32,21.6 -11.52,40.33 -21.61,57.61 -10.08,15.85 -21.6,31.69 -37.45,47.54 -15.84,15.84 -61.93,40.32 -136.83,74.89 -76.34,36.01 -174.28,69.14 -295.28,103.71 -120.99,33.13 -260.7,63.37 -419.14,89.3 -158.44,27.37 -326.97,40.33 -507.01,40.33 -312.56,0 -584.79,-43.21 -819.56,-131.07 -234.79,-86.42 -418.77,-229.55 -591.99,-387.46 -177.55,-161.84 -489.59,-647.49 -483.97,-1124.71 3.84,-325.49 42.22,-619.21 126.75,-880.05 83.98,-259.13 205.98,-481.09 364.42,-662.57 158.44,-181.49 351.19,-320.38 576.14,-417.71 224.43,-97.11 476.76,-145.48 754.75,-145.48 298.16,0 551.27,48.41 760.51,144.04 209.9,95.93 382.13,224.35 517.1,386.02 134.37,160.96 233.14,351.51 296.71,570.38 63.18,217.55 95.06,450.84 95.06,698.58l0 126.75zm-700.01 -205.97c8.64,-365.85 -72.02,-653.93 -243.43,-862.78 -171.39,-208.85 -423.46,-312.56 -759.06,-312.56 -172.85,0 -324.09,31.69 -453.72,96.51 -129.63,64.81 -237.31,151.53 -325.52,259.26 -87.51,106.87 -155.78,231.83 -203.09,373.05 -47.75,142.52 -74.9,290.96 -80.67,446.52l2065.49 0z"/>
  <path class="fil0" d="M10210.22 4113c0,171.41 -21.61,329.85 -64.82,473.89 -44.65,145.47 -105.15,275.1 -184.37,391.77 -79.21,115.23 -174.28,216.06 -285.19,303.92 -110.91,86.42 -236.22,159.88 -375.93,218.94 -139.72,59.05 -289.52,103.7 -447.96,132.51 -159.88,30.25 -341.36,44.65 -547.33,44.65l-1427.41 0c-64.81,0 -126.75,-21.61 -184.36,-64.82 -57.62,-44.65 -86.42,-120.99 -86.42,-230.46l0 -4871.31c0,-109.47 28.8,-185.81 86.42,-230.46 57.61,-43.21 119.55,-64.81 184.36,-64.81l1241.6 0c326.96,0 594.87,30.25 803.72,92.18 207.41,61.94 381.7,152.68 521.41,270.79 139.72,118.11 244.86,263.59 315.44,434.99 70.58,171.4 105.15,365.85 105.15,581.91 0,129.63 -15.84,253.5 -46.09,371.61 -31.69,118.11 -77.78,227.58 -138.28,326.96 -60.49,100.83 -135.39,190.13 -227.57,267.91 -92.19,79.22 -197.34,144.04 -315.44,194.45 149.79,28.81 289.51,79.22 419.14,154.12 128.19,74.9 241.98,169.96 339.93,285.19 96.5,115.23 172.84,250.62 229.01,404.74 56.18,155.56 84.99,325.52 84.99,511.33zm-1088.92 -2445.73c0,-132.52 -18.73,-252.07 -54.73,-360.09 -36.01,-106.59 -93.62,-197.34 -172.85,-272.23 -79.22,-74.9 -181.48,-131.08 -308.24,-171.41 -126.75,-38.89 -293.83,-59.05 -502.68,-59.05l-750.43 0 0 1771.65 826.77 0c188.69,0 339.92,-24.49 456.59,-73.47 115.23,-50.41 210.3,-116.66 286.64,-198.76 74.89,-83.55 131.07,-181.49 165.64,-292.4 36.01,-110.9 53.29,-226.14 53.29,-344.24zm328.4 2488.94c0,-162.76 -25.92,-306.79 -77.77,-430.67 -51.86,-123.87 -128.2,-227.57 -227.58,-312.55 -100.83,-84.99 -224.7,-148.36 -375.94,-193.01 -149.8,-43.21 -339.92,-64.82 -567.5,-64.82l-868.54 0 0 1927.21 1054.35 0c165.64,0 311.11,-20.17 434.99,-59.06 123.87,-38.88 231.89,-97.94 326.96,-175.72 93.62,-77.78 167.08,-174.28 220.37,-289.52 53.3,-115.22 80.66,-249.18 80.66,-401.86z"/>
  <path class="fil1" d="M10210.22 3989.72c0,171.4 -21.61,329.84 -64.82,473.88 -44.65,145.47 -105.15,275.11 -184.37,391.77 -79.21,115.24 -174.28,216.06 -285.19,303.92 -110.91,86.42 -236.22,159.88 -375.93,218.94 -139.72,59.05 -289.52,103.71 -447.96,132.51 -159.88,30.25 -341.36,44.65 -547.33,44.65l-1427.41 0c-64.81,0 -126.75,-21.6 -184.36,-64.81 -57.62,-44.65 -86.42,-120.99 -86.42,-230.46l0 -4871.31c0,-109.47 28.8,-185.81 86.42,-230.46 57.61,-43.21 119.55,-64.82 184.36,-64.82l1241.6 0c326.96,0 594.87,30.25 803.72,92.19 207.41,61.93 381.7,152.67 521.41,270.78 139.72,118.11 244.86,263.59 315.44,434.99 70.58,171.41 105.15,365.86 105.15,581.91 0,129.63 -15.84,253.5 -46.09,371.62 -31.69,118.1 -77.78,227.57 -138.28,326.96 -60.49,100.82 -135.39,190.13 -227.57,267.9 -92.19,79.23 -197.34,144.04 -315.44,194.45 149.79,28.81 289.51,79.22 419.14,154.12 128.19,74.9 241.98,169.97 339.93,285.2 96.5,115.22 172.84,250.62 229.01,404.74 56.18,155.56 84.99,325.52 84.99,511.33zm-1088.92 -2445.74c0,-132.52 -18.73,-252.07 -54.73,-360.09 -36.01,-106.59 -93.62,-197.33 -172.85,-272.23 -79.22,-74.9 -181.48,-131.07 -308.24,-171.4 -126.75,-38.9 -293.83,-59.06 -502.68,-59.06l-750.43 0 0 1771.65 826.77 0c188.69,0 339.92,-24.49 456.59,-73.46 115.23,-50.41 210.3,-116.67 286.64,-198.77 74.89,-83.54 131.07,-181.49 165.64,-292.39 36.01,-110.91 53.29,-226.14 53.29,-344.25zm328.4 2488.95c0,-162.76 -25.92,-306.8 -77.77,-430.67 -51.86,-123.87 -128.2,-227.58 -227.58,-312.56 -100.83,-84.98 -224.7,-148.36 -375.94,-193.01 -149.8,-43.21 -339.92,-64.82 -567.5,-64.82l-868.54 0 0 1927.21 1054.35 0c165.64,0 311.11,-20.16 434.99,-59.05 123.87,-38.89 231.89,-97.95 326.96,-175.73 93.62,-77.78 167.08,-174.28 220.37,-289.51 53.3,-115.23 80.66,-249.18 80.66,-401.86z"/>
  <rect class="fil2" transform="matrix(0.0778055 -0.0844331 -0.267535 -0.246535 4853.63 2988.76)" width="8607.78" height="8607.78" rx="1270" ry="1270"/>
  <rect class="fil2" transform="matrix(0.0469861 -0.0509885 -0.161562 -0.148881 5067.63 1841.29)" width="8607.78" height="8607.78" rx="1270" ry="1270"/>
  <rect class="fil3" transform="matrix(-0.267535 -0.246535 0.263546 -0.285995 2168.57 4169.61)" width="2151.95" height="6930.17"/>
  <path class="fil3" d="M5368.09 1518.06l47.83 -51.9c32.82,-35.62 30.53,-91.61 -5.08,-124.43l-1261.19 -1162.19c-35.62,-32.82 -91.61,-30.54 -124.43,5.08l-47.83 51.91c32.82,-35.62 88.81,-37.9 124.42,-5.09l1261.19 1162.2c35.62,32.82 37.91,88.81 5.09,124.42z"/>
  <path class="fil3" d="M5372.2 2424.75l52.19 -56.63c54.34,-58.98 50.56,-151.69 -8.42,-206.04l-2088.43 -1924.5c-58.98,-54.35 -151.69,-50.56 -206.04,8.42l-52.18 56.63c54.34,-58.98 147.06,-62.77 206.04,-8.42l2088.43 1924.5c58.97,54.34 62.76,147.06 8.41,206.04z"/>
  <path class="fil3" d="M3787.16 442.41l-47.84 51.91c-32.82,35.61 -30.53,91.6 5.09,124.42l1261.19 1162.19c35.61,32.82 91.6,30.54 124.42,-5.08l47.83 -51.91c-32.82,35.62 -88.81,37.91 -124.42,5.09l-1261.19 -1162.19c-35.61,-32.82 -37.9,-88.81 -5.08,-124.43z"/>
  <path class="fil3" d="M2704.52 703.89l-52.18 56.63c-54.35,58.98 -50.56,151.69 8.41,206.04l2088.43 1924.5c58.98,54.34 151.7,50.56 206.04,-8.42l52.19 -56.63c-54.35,58.98 -147.07,62.77 -206.04,8.42l-2088.43 -1924.5c-58.98,-54.35 -62.76,-147.06 -8.42,-206.04z"/>
  <rect class="fil2" transform="matrix(-0.0778055 0.0844331 -0.267535 -0.246535 3033.31 4964.14)" width="8607.78" height="8607.78" rx="1270" ry="1270"/>
  <rect class="fil2" transform="matrix(-0.0469861 0.0509885 -0.161562 -0.148881 1907.13 5271.01)" width="8607.78" height="8607.78" rx="1270" ry="1270"/>
  <path class="fil3" d="M1610.39 5593.08l-47.84 51.91c-32.82,35.61 -88.81,37.9 -124.42,5.08l-1261.19 -1162.19c-35.61,-32.82 -37.9,-88.81 -5.08,-124.43l47.83 -51.91c-32.82,35.62 -30.53,91.61 5.08,124.43l1261.19 1162.19c35.62,32.82 91.61,30.54 124.43,-5.08z"/>
  <path class="fil3" d="M2513.48 5526.98l-52.18 56.63c-54.35,58.98 -147.07,62.76 -206.04,8.42l-2088.43 -1924.5c-58.98,-54.35 -62.77,-147.07 -8.42,-206.04l52.19 -56.63c-54.35,58.98 -50.56,151.69 8.41,206.04l2088.43 1924.5c58.98,54.34 151.7,50.56 206.04,-8.42z"/>
  <path class="fil3" d="M408.46 4108.91l47.84 -51.91c32.82,-35.62 88.81,-37.9 124.42,-5.08l1261.19 1162.19c35.62,32.82 37.91,88.81 5.08,124.43l-47.83 51.9c32.82,-35.61 30.53,-91.6 -5.08,-124.42l-1261.19 -1162.2c-35.61,-32.81 -91.6,-30.53 -124.43,5.09z"/>
  <path class="fil3" d="M580.77 3008.55l52.18 -56.63c54.35,-58.97 147.06,-62.76 206.04,-8.41l2088.43 1924.49c58.98,54.35 62.76,147.07 8.42,206.04l-52.19 56.63c54.35,-58.97 50.56,-151.69 -8.41,-206.04l-2088.43 -1924.5c-58.98,-54.34 -151.7,-50.55 -206.04,8.42z"/>
 </g>
</svg>
